<?xml version="1.0" encoding="iso-8859-1"?>
<!-- Generator: Adobe Illustrator 21.0.0, SVG Export Plug-In . SVG Version: 6.00 Build 0)  -->
<svg xmlns="http://www.w3.org/2000/svg" xmlns:xlink="http://www.w3.org/1999/xlink" version="1.1" id="Capa_1" x="0px" y="0px" viewBox="0 0 512 512" style="enable-background:new 0 0 512 512;" xml:space="preserve" width="512" height="512">
<g>
	<circle style="fill:#FF4856;" cx="256" cy="256" r="256"/>
	<path style="fill:#D1425A;" d="M198.36,355.259l-40.904,40.754l115.42,115.42C406.392,502.74,512,391.713,512,256   c0-8.152-0.398-16.21-1.143-24.168L396.012,116.988l-48.494,11.247h-82.846V163l-17.344-18h-37.795   c-0.057-0.055-11.173-11.163-11.173-11.163l-40.904,40.754c0,0,32.039,32.041,32.059,32.062v25.067h-20.451   c-0.057-0.055-11.173-11.163-11.173-11.163l-40.904,40.754c0,0,105.072,105.075,105.108,105.113h-12.562   C209.477,366.366,198.36,355.259,198.36,355.259z"/>
	<g>
		<polygon style="fill:#266CB2;" points="264.672,383.766 197.609,383.766 197.609,366.422 247.328,366.422 247.328,336.359     264.672,336.359   "/>
		<rect x="256" y="336.359" style="fill:#114378;" width="8.672" height="47.406"/>
		<polygon style="fill:#114378;" points="282.016,189.516 264.672,189.516 264.672,128.234 354.859,128.234 354.859,145.578     282.016,145.578   "/>
		<polygon style="fill:#114378;" points="331.734,354.281 282.016,354.281 282.016,299.938 299.359,299.938 299.359,336.938     331.734,336.938   "/>
		<polygon style="fill:#266CB2;" points="247.328,187.781 229.984,187.781 229.984,162.344 197.609,162.344 197.609,145     247.328,145   "/>
		<rect x="157.141" y="231.719" style="fill:#266CB2;" width="41.047" height="17.344"/>
		<rect x="313.813" y="247.328" style="fill:#114378;" width="41.047" height="17.344"/>
		<path style="fill:#FFB742;" d="M256,348.623l-66.484-66.484v-78.17h8.672c7.97,0,14.453-6.484,14.453-14.453v-8.672h86.719v8.672    c0,7.97,6.484,14.453,14.453,14.453h8.672v78.17L256,348.623z"/>
		<path style="fill:#FE8100;" d="M313.813,203.969c-7.97,0-14.453-6.484-14.453-14.453v-8.672H256v167.78l66.484-66.484v-78.17    H313.813z"/>
		<path style="fill:#4DB2FF;" d="M375.094,165.813c-15.939,0-28.906-12.967-28.906-28.906S359.155,108,375.094,108    S404,120.967,404,136.906S391.033,165.813,375.094,165.813z"/>
		<path style="fill:#80C9FF;" d="M177.375,404c-15.939,0-28.906-12.967-28.906-28.906s12.967-28.906,28.906-28.906    s28.906,12.967,28.906,28.906S193.314,404,177.375,404z"/>
		<path style="fill:#4DB2FF;" d="M351.969,374.516c-15.939,0-28.906-12.967-28.906-28.906s12.967-28.906,28.906-28.906    s28.906,12.967,28.906,28.906S367.908,374.516,351.969,374.516z"/>
		<path style="fill:#80C9FF;" d="M177.375,182.578c-15.939,0-28.906-12.967-28.906-28.906s12.967-28.906,28.906-28.906    s28.906,12.967,28.906,28.906S193.314,182.578,177.375,182.578z"/>
		<path style="fill:#80C9FF;" d="M136.906,269.297c-15.939,0-28.906-12.967-28.906-28.906s12.967-28.906,28.906-28.906    s28.906,12.967,28.906,28.906S152.845,269.297,136.906,269.297z"/>
		<path style="fill:#4DB2FF;" d="M375.094,284.906c-15.939,0-28.906-12.967-28.906-28.906s12.967-28.906,28.906-28.906    S404,240.061,404,256S391.033,284.906,375.094,284.906z"/>
		<path style="fill:#FFE2BA;" d="M256,348.623l-66.484-66.484v-78.17h8.672c7.97,0,14.453-6.484,14.453-14.453v-8.672h86.719v8.672    c0,7.97,6.484,14.453,14.453,14.453h8.672v78.17L256,348.623z M206.859,274.955L256,324.096l49.141-49.141v-54.844    c-10.574-3.001-18.922-11.349-21.923-21.923h-54.435c-3.001,10.574-11.349,18.922-21.923,21.923V274.955z"/>
		<path style="fill:#FFC474;" d="M322.484,203.969h-8.672c-7.97,0-14.453-6.484-14.453-14.453v-8.672H256v17.344h27.217    c3.001,10.574,11.349,18.922,21.923,21.923v54.844L256,324.096v24.528l66.484-66.484V203.969z"/>
	</g>
</g>















</svg>
