<svg height="512pt" viewBox="0 0 512 512" width="512pt" xmlns="http://www.w3.org/2000/svg"><path d="m512 256c0 141.386719-114.613281 256-256 256s-256-114.613281-256-256 114.613281-256 256-256 256 114.613281 256 256zm0 0" fill="#4a7aff"/><path d="m510.019531 287.921875-205.039062-205.039063-101.464844 98.972657 50.53125 50.53125-8.371094 24.574219h-120.355469l-36.164062 123.726562 128.441406 128.445312c12.527344 1.882813 25.347656 2.867188 38.402344 2.867188 130.574219 0 238.308594-97.757812 254.019531-224.078125zm0 0" fill="#0053bf"/><path d="m241 190.800781h30v138.484375h-30zm0 0" fill="#ff936b"/><path d="m255.59375 190.800781h15.40625v138.484375h-15.40625zm0 0" fill="#ff7045"/><path d="m401.679688 345.253906h-30v-68.253906h-231.359376v57.792969h-30v-87.792969h291.359376zm0 0" fill="#ff936b"/><path d="m255.59375 247v30h116.085938v68.253906h30v-98.253906zm0 0" fill="#ff7045"/><path d="m326.914062 134.164062c0 39.164063-31.75 70.914063-70.914062 70.914063s-70.914062-31.75-70.914062-70.914063c0-39.164062 31.75-70.914062 70.914062-70.914062s70.914062 31.75 70.914062 70.914062zm0 0" fill="#fff"/><path d="m256 63.25c-.136719 0-.269531.007812-.40625.007812v141.8125c.136719 0 .269531.007813.40625.007813 39.164062 0 70.914062-31.75 70.914062-70.914063 0-39.164062-31.75-70.914062-70.914062-70.914062zm0 0" fill="#dce1eb"/><path d="m286.804688 119.328125c0 17.011719-13.792969 30.804687-30.804688 30.804687s-30.804688-13.792968-30.804688-30.804687 13.792969-30.804687 30.804688-30.804687 30.804688 13.792968 30.804688 30.804687zm0 0" fill="#ffbeaa"/><path d="m256 88.523438c-.136719 0-.269531.007812-.40625.011718v61.585938c.136719.003906.269531.011718.40625.011718 17.011719 0 30.804688-13.792968 30.804688-30.804687s-13.792969-30.804687-30.804688-30.804687zm0 0" fill="#e09380"/><path d="m207.019531 185.445312c12.730469 12.164063 29.984375 19.632813 48.980469 19.632813s36.25-7.46875 48.980469-19.632813c-7.796875-19.410156-26.78125-33.125-48.980469-33.125s-41.183594 13.714844-48.980469 33.125zm0 0" fill="#ff7045"/><path d="m304.980469 185.445312c-7.796875-19.410156-26.78125-33.125-48.980469-33.125-.136719 0-.269531.007813-.40625.007813v52.742187c.136719 0 .269531.007813.40625.007813 18.996094 0 36.25-7.46875 48.980469-19.632813zm0 0" fill="#de4726"/><path d="m437.320312 345.257812c0 27.964844-22.671874 50.636719-50.640624 50.636719s-50.640626-22.671875-50.640626-50.636719c0-27.96875 22.671876-50.640624 50.640626-50.640624s50.640624 22.671874 50.640624 50.640624zm0 0" fill="#ffb600"/><path d="m175.960938 345.257812c0 27.964844-22.671876 50.636719-50.640626 50.636719s-50.640624-22.671875-50.640624-50.636719c0-27.96875 22.671874-50.640624 50.640624-50.640624s50.640626 22.671874 50.640626 50.640624zm0 0" fill="#ffce00"/><path d="m306.640625 345.257812c0 27.964844-22.671875 50.636719-50.640625 50.636719s-50.640625-22.671875-50.640625-50.636719c0-27.96875 22.671875-50.640624 50.640625-50.640624s50.640625 22.671874 50.640625 50.640624zm0 0" fill="#ffce00"/><path d="m256 294.613281c-.136719 0-.269531.011719-.40625.011719v101.261719c.136719 0 .269531.007812.40625.007812 27.96875 0 50.640625-22.671875 50.640625-50.640625s-22.671875-50.640625-50.640625-50.640625zm0 0" fill="#ffb600"/></svg>