<?xml version="1.0" encoding="iso-8859-1"?>
<!-- Generator: Adobe Illustrator 21.0.0, SVG Export Plug-In . SVG Version: 6.00 Build 0)  -->
<svg xmlns="http://www.w3.org/2000/svg" xmlns:xlink="http://www.w3.org/1999/xlink" version="1.1" id="Capa_1" x="0px" y="0px" viewBox="0 0 512 512" style="enable-background:new 0 0 512 512;" xml:space="preserve" width="512" height="512">
<g>
	<circle style="fill:#30CBEF;" cx="256" cy="256" r="256"/>
	<path style="fill:#00AABC;" d="M511.949,260.023L364.926,113L147.074,308.508l33.728,33l-15.782,14.204   c-0.316-0.328-3.965-3.965-3.965-3.965l-39.353,39.551l120.317,120.317c4.63,0.249,9.289,0.384,13.981,0.384   C396.04,512,509.797,399.551,511.949,260.023z"/>
	<g>
		<polygon style="fill:#FFC474;" points="166.085,377.298 154.875,364.842 196.789,327.12 196.789,300.129 213.547,300.129     213.547,334.583   "/>
		<rect x="247.621" y="300.129" style="fill:#FFC474;" width="16.758" height="51.391"/>
		<polygon style="fill:#FFB742;" points="351.192,366.568 298.453,335.652 298.453,300.129 315.211,300.129 315.211,326.051     359.667,352.111   "/>
		<rect x="256" y="300.129" style="fill:#FFB742;" width="8.379" height="51.391"/>
		<path style="fill:#4DB2FF;" d="M364.926,308.508H147.074V113h217.852V308.508z"/>
		<rect x="256" y="113" style="fill:#266CB2;" width="108.926" height="195.508"/>
		<path style="fill:#FFB742;" d="M140.93,399c-15.401,0-27.93-12.529-27.93-27.93s12.529-27.93,27.93-27.93    s27.93,12.529,27.93,27.93S156.33,399,140.93,399z"/>
		<path style="fill:#FFB742;" d="M256,399c-15.401,0-27.93-12.529-27.93-27.93s12.529-27.93,27.93-27.93s27.93,12.529,27.93,27.93    S271.401,399,256,399z"/>
		<path style="fill:#FE8100;" d="M371.07,399c-15.401,0-27.93-12.529-27.93-27.93s12.529-27.93,27.93-27.93S399,355.67,399,371.07    S386.471,399,371.07,399z"/>
		<circle style="fill:#FF6E84;" cx="188.969" cy="154.895" r="8.379"/>
		<circle style="fill:#FF6E84;" cx="222.484" cy="154.895" r="8.379"/>
		<circle style="fill:#FF6E84;" cx="256" cy="154.895" r="8.379"/>
		<rect x="180.59" y="180.031" style="fill:#CCF0FF;" width="67.031" height="16.758"/>
		<rect x="197.348" y="213.547" style="fill:#CCF0FF;" width="90.492" height="16.758"/>
		<rect x="186.176" y="247.063" style="fill:#CCF0FF;" width="39.66" height="16.758"/>
		<rect x="242.594" y="247.063" style="fill:#CCF0FF;" width="26.813" height="16.758"/>
		<rect x="304.598" y="213.547" style="fill:#80C9FF;" width="26.813" height="16.758"/>
		<rect x="256" y="213.547" style="fill:#80C9FF;" width="31.84" height="16.758"/>
		<rect x="256" y="247.063" style="fill:#80C9FF;" width="13.406" height="16.758"/>
		<path style="fill:#FE3B7F;" d="M264.379,154.895c0-4.628-3.751-8.379-8.379-8.379v16.758    C260.628,163.273,264.379,159.522,264.379,154.895z"/>
		<path style="fill:#FE8100;" d="M283.93,371.07c0-15.401-12.529-27.93-27.93-27.93V399C271.401,399,283.93,386.471,283.93,371.07z"/>
	</g>
</g>















</svg>
