<svg height="512pt" viewBox="0 0 512 512" width="512pt" xmlns="http://www.w3.org/2000/svg"><path d="m512 256c0 141.386719-114.613281 256-256 256s-256-114.613281-256-256 114.613281-256 256-256 256 114.613281 256 256zm0 0" fill="#4a7aff"/><path d="m286.160156 510.222656c117.359375-13.777344 210.429688-106.921875 224.09375-224.320312l-208.90625-208.902344-205.386718 229.597656 58.027343 58.027344-3.941406 9.480469zm0 0" fill="#0053bf"/><path d="m212.5625 210.785156h180.75c23.023438 0 41.6875 18.664063 41.6875 41.6875v87.386719c0 19.433594-13.296875 35.757813-31.289062 40.378906l-33.28125 54.761719-32.484376-53.457031h-125.382812c-23.023438 0-41.683594-18.664063-41.683594-41.6875v-87.386719c0-23.019531 18.660156-41.683594 41.683594-41.683594zm0 0" fill="#80dbff"/><path d="m393.3125 210.785156h-94.265625v170.757813h38.898437l32.484376 53.457031 33.28125-54.765625c17.992187-4.617187 31.289062-20.945313 31.289062-40.378906v-87.386719c0-23.019531-18.664062-41.683594-41.6875-41.683594zm0 0" fill="#4ab8f7"/><path d="m307.914062 149.890625h-180.75c-23.023437 0-41.6875 18.664063-41.6875 41.6875v87.386719c0 19.433594 13.296876 35.761718 31.292969 40.378906l33.277344 54.765625 32.484375-53.457031h125.382812c23.023438 0 41.683594-18.664063 41.683594-41.6875v-87.386719c.003906-23.023437-18.660156-41.6875-41.683594-41.6875zm0 0" fill="#ff7045"/><path d="m307.914062 149.890625h-80.890624v170.757813h80.890624c23.023438 0 41.6875-18.660157 41.6875-41.683594v-87.386719c0-23.023437-18.664062-41.6875-41.6875-41.6875zm0 0" fill="#de4726"/><path d="m227.347656 77-86.667968 123.34375 73.222656-.589844-73.222656 123.136719 170.605468-164.722656-78.640625-.660157 68.703125-80.507812zm0 0" fill="#ffce00"/><path d="m232.644531 157.507812 68.703125-80.507812h-74l-.324218.460938v162.066406l84.261718-81.359375zm0 0" fill="#ffb600"/></svg>