<svg height="512pt" viewBox="0 0 512 512" width="512pt" xmlns="http://www.w3.org/2000/svg"><path d="m512 256c0 141.386719-114.613281 256-256 256s-256-114.613281-256-256 114.613281-256 256-256 256 114.613281 256 256zm0 0" fill="#ff7045"/><path d="m278.953125 510.964844c130.628906-11.613282 233.046875-121.320313 233.046875-254.964844 0-9.050781-.476562-17.988281-1.394531-26.796875l-115.644531-115.648437-33.757813 26.433593-90.203125-90.207031-30 54.433594 70.394531 70.394531-42.664062 48.210937-91.988281-91.988281-21.210938 21.210938 93.28125 93.285156-42.664062 48.207031-77.234376-77.234375-54.433593 30 92.03125 92.03125-28.257813 31.929688zm0 0" fill="#de4726"/><path d="m354.035156 233.820312c0-54.378906-44.273437-98.417968-98.742187-98.03125-54.03125.378907-98.34375 45.921876-97.308594 99.945313.40625 21.285156 7.597656 40.914063 19.503906 56.804687 17.210938 22.980469 29.851563 49.050782 36.378907 77.011719l4.683593 20.074219h74.898438l4.6875-20.078125c6.53125-27.992187 19.226562-54.0625 36.4375-77.085937 12.222656-16.355469 19.460937-36.652344 19.460937-58.640626zm0 0" fill="#ffce00"/><path d="m255.59375 135.789062v253.835938h37.855469l4.6875-20.078125c6.53125-27.992187 19.226562-54.066406 36.4375-77.085937 12.222656-16.355469 19.460937-36.652344 19.460937-58.640626 0-54.277343-44.109375-98.25-98.441406-98.03125zm0 0" fill="#ffb600"/><path d="m280.492188 413.722656h-48.984376l-17.90625-185.242187h84.796876zm-36.050782-157.242187 11.558594 119.597656 11.5625-119.597656zm0 0" fill="#feec65"/><path d="m298.398438 228.480469h-42.804688v28h11.96875l-11.5625 119.597656-.40625-4.195313v41.839844h24.898438zm0 0" fill="#fcd748"/><path d="m241 49.78125h30v54.433594h-30zm0 0" fill="#fff"/><path d="m255.59375 49.78125h15.40625v54.433594h-15.40625zm0 0" fill="#dce1eb"/><path d="m383.085938 216.300781h54.433593v30h-54.433593zm0 0" fill="#dce1eb"/><path d="m74.480469 216.300781h54.433593v30h-54.433593zm0 0" fill="#fff"/><path d="m335.253906 130.828125 38.488282-38.488281 21.210937 21.214844-38.488281 38.488281zm0 0" fill="#dce1eb"/><path d="m117.039062 349.046875 38.488282-38.488281 21.214844 21.210937-38.492188 38.492188zm0 0" fill="#fff"/><path d="m117.039062 113.554688 21.210938-21.210938 38.492188 38.488281-21.214844 21.214844zm0 0" fill="#fff"/><path d="m335.25 331.769531 21.214844-21.214843 38.488281 38.488281-21.214844 21.214843zm0 0" fill="#dce1eb"/><path d="m265.652344 449.5h-19.292969c-15.355469 0-27.808594-12.449219-27.808594-27.808594v-32.066406h74.910157v32.066406c0 15.359375-12.449219 27.808594-27.808594 27.808594zm0 0" fill="#fff"/><path d="m255.59375 389.625v59.875h10.058594c15.359375 0 27.808594-12.449219 27.808594-27.808594v-32.066406zm0 0" fill="#dce1eb"/></svg>