<?xml version="1.0" encoding="iso-8859-1"?>
<!-- Generator: Adobe Illustrator 21.0.0, SVG Export Plug-In . SVG Version: 6.00 Build 0)  -->
<svg xmlns="http://www.w3.org/2000/svg" xmlns:xlink="http://www.w3.org/1999/xlink" version="1.1" id="Capa_1" x="0px" y="0px" viewBox="0 0 512 512" style="enable-background:new 0 0 512 512;" xml:space="preserve" width="512" height="512">
<g>
	<circle style="fill:#FF4856;" cx="256" cy="256" r="256"/>
	<path style="fill:#D1425A;" d="M511.82,265.14L352.68,106L159.32,305.219l17.578,17v32.559l-16.066,16.066L106,388.422   l122.054,122.054C237.234,511.473,246.555,512,256,512C394.323,512,507.004,402.29,511.82,265.14z"/>
	<g>
		<rect x="106" y="370.844" style="fill:#FFB742;" width="62.109" height="17.578"/>
		<rect x="203.266" y="370.844" style="fill:#FFB742;" width="35.156" height="17.578"/>
		<rect x="343.891" y="370.844" style="fill:#FE8100;" width="62.109" height="17.578"/>
		<rect x="273.578" y="370.844" style="fill:#FE8100;" width="35.156" height="17.578"/>
		<rect x="176.898" y="296.43" style="fill:#FFB742;" width="17.578" height="65.625"/>
		<rect x="317.523" y="296.43" style="fill:#FE8100;" width="17.578" height="65.625"/>
		<rect x="247.211" y="296.43" style="fill:#FFB742;" width="17.578" height="65.625"/>
		<rect x="256" y="296.43" style="fill:#FE8100;" width="8.789" height="65.625"/>
		<path style="fill:#CCF0FF;" d="M352.68,305.219H159.32V106H352.68V305.219z"/>
		<rect x="256" y="106" style="fill:#80C9FF;" width="96.68" height="199.219"/>
		<rect x="264.789" y="141.156" style="fill:#266CB2;" width="52.734" height="17.578"/>
		<circle style="fill:#FFB742;" cx="203.266" cy="149.945" r="8.789"/>
		<circle style="fill:#4DB2FF;" cx="238.422" cy="149.945" r="8.789"/>
		<path style="fill:#FFE2BA;" d="M256,406c-14.539,0-26.367-11.828-26.367-26.367s11.828-26.367,26.367-26.367    c14.539,0,26.367,11.828,26.367,26.367S270.539,406,256,406z"/>
		<rect x="264.789" y="176.313" style="fill:#266CB2;" width="52.734" height="17.578"/>
		<rect x="264.789" y="211.469" style="fill:#266CB2;" width="52.734" height="17.578"/>
		<path style="fill:#FFE2BA;" d="M185.687,406c-14.539,0-26.367-11.828-26.367-26.367s11.828-26.367,26.367-26.367    c14.539,0,26.367,11.828,26.367,26.367S200.226,406,185.687,406z"/>
		<path style="fill:#FFC474;" d="M326.313,406c-14.539,0-26.367-11.828-26.367-26.367s11.828-26.367,26.367-26.367    s26.367,11.828,26.367,26.367S340.852,406,326.313,406z"/>
		<path style="fill:#FFC474;" d="M282.367,379.633c0-14.539-11.828-26.367-26.367-26.367V406    C270.539,406,282.367,394.172,282.367,379.633z"/>
	</g>
</g>















</svg>
