<?xml version="1.0" encoding="iso-8859-1"?>
<!-- Generator: Adobe Illustrator 21.0.0, SVG Export Plug-In . SVG Version: 6.00 Build 0)  -->
<svg xmlns="http://www.w3.org/2000/svg" xmlns:xlink="http://www.w3.org/1999/xlink" version="1.1" id="Capa_1" x="0px" y="0px" viewBox="0 0 512 512" style="enable-background:new 0 0 512 512;" xml:space="preserve" width="512" height="512">
<g>
	<circle style="fill:#FF4856;" cx="256" cy="256" r="256"/>
	<path style="fill:#D1425A;" d="M162.597,324.32c-0.008-0.007-12.023-12.022-12.023-12.022l-43.956,43.775l155.845,155.845   c126.428-3.133,230.09-97.929,247.078-220.437L390.467,172.407l-35.202-15.948l-32.879-32.874L127.177,242.474   c0,0,62.654,62.662,62.987,62.988v18.858H162.597z"/>
	<g>
		<polygon style="fill:#114378;" points="361.843,341.053 303.203,306.678 303.203,246.684 321.836,246.684 321.836,296.002     371.266,324.978   "/>
		<path style="fill:#4DB2FF;" d="M383.945,377.113c-17.124,0-31.055-13.931-31.055-31.055s13.931-31.055,31.055-31.055    S415,328.935,415,346.059S401.069,377.113,383.945,377.113z"/>
		<polygon style="fill:#266CB2;" points="208.797,342.953 149.793,342.953 149.793,324.32 190.164,324.32 190.164,246.684     208.797,246.684   "/>
		<path style="fill:#80C9FF;" d="M128.055,364.691C110.931,364.691,97,350.76,97,333.637s13.931-31.055,31.055-31.055    s31.055,13.931,31.055,31.055S145.178,364.691,128.055,364.691z"/>
		<path style="fill:#FFE2BA;" d="M259.167,274.012c-19.766,0-38.799-6.561-54.281-18.597c-9.215,4.411-19.346,6.719-29.66,6.719    c-37.886,0-68.709-30.822-68.709-68.708s30.822-68.708,68.709-68.708c5.961,0,11.836,0.761,17.54,2.267    C209.579,107.848,233.427,97,259.167,97c20.357,0,40.233,7.083,55.968,19.943c12.933,10.57,22.625,24.638,27.919,40.316    c3.138-0.577,6.33-0.867,9.556-0.867c29.153,0,52.871,23.718,52.871,52.871s-23.717,52.871-52.871,52.871    c-12.231,0-23.908-4.198-33.239-11.755C303.081,265.5,281.63,274.012,259.167,274.012z"/>
		<path style="fill:#FFC474;" d="M352.611,156.392c-3.226,0-6.418,0.29-9.556,0.867c-5.294-15.678-14.987-29.746-27.919-40.316    C299.4,104.083,279.524,97,259.167,97c-1.06,0-2.115,0.025-3.167,0.062v176.89c1.054,0.037,2.109,0.06,3.167,0.06    c22.463,0,43.913-8.512,60.204-23.634c9.331,7.557,21.008,11.755,33.239,11.755c29.153,0,52.871-23.718,52.871-52.871    S381.764,156.392,352.611,156.392z"/>
		<rect x="246.684" y="210.66" style="fill:#266CB2;" width="18.633" height="151.547"/>
		<rect x="256" y="210.66" style="fill:#114378;" width="9.316" height="151.547"/>
		<path style="fill:#80C9FF;" d="M256,415c-17.124,0-31.055-13.931-31.055-31.055s13.931-31.055,31.055-31.055    s31.055,13.931,31.055,31.055S273.124,415,256,415z"/>
		<path style="fill:#80C9FF;" d="M256,219.977c-17.124,0-31.055-13.931-31.055-31.055s13.931-31.055,31.055-31.055    s31.055,13.931,31.055,31.055S273.124,219.977,256,219.977z"/>
		<path style="fill:#4DB2FF;" d="M287.055,188.922c0-17.124-13.931-31.055-31.055-31.055v62.109    C273.124,219.977,287.055,206.046,287.055,188.922z"/>
		<path style="fill:#4DB2FF;" d="M287.055,383.945c0-17.124-13.931-31.055-31.055-31.055V415    C273.124,415,287.055,401.069,287.055,383.945z"/>
	</g>
</g>















</svg>
