<?xml version="1.0" encoding="iso-8859-1"?>
<!-- Generator: Adobe Illustrator 21.0.0, SVG Export Plug-In . SVG Version: 6.00 Build 0)  -->
<svg xmlns="http://www.w3.org/2000/svg" xmlns:xlink="http://www.w3.org/1999/xlink" version="1.1" id="Capa_1" x="0px" y="0px" viewBox="0 0 512 512" style="enable-background:new 0 0 512 512;" xml:space="preserve" width="512" height="512">
<g>
	<circle style="fill:#30CBEF;" cx="256" cy="256" r="256"/>
	<path style="fill:#00AABC;" d="M512,256c0-10.833-0.68-21.507-1.986-31.986L399,113l-117.305,33.516h-18.391l-33-33.516   L113,196.789l22.593,22l-3.042,17.102l30.723,30v10.219L113,359.898l22.593,22L132.551,399l112.761,112.761   C248.858,511.907,252.418,512,256,512C397.385,512,512,397.385,512,256z"/>
	<g>
		<path style="fill:#266CB2;" d="M210.754,399h-78.203v-16.758c7.7,0,13.965-6.265,13.965-13.965v-25.137h50.273v25.137    c0,7.7,6.265,13.965,13.965,13.965V399z"/>
		<path style="fill:#114378;" d="M196.789,368.277v-25.137h-25.137V399h39.102v-16.758    C203.054,382.242,196.789,375.978,196.789,368.277z"/>
		<path style="fill:#266CB2;" d="M379.449,235.891h-78.203v-16.758c7.7,0,13.965-6.265,13.965-13.965v-25.137h50.273v25.137    c0,7.7,6.265,13.965,13.965,13.965V235.891z"/>
		<path style="fill:#114378;" d="M365.484,205.168v-25.137h-25.137v55.859h39.102v-16.758    C371.749,219.133,365.484,212.868,365.484,205.168z"/>
		<rect x="163.273" y="227.512" style="fill:#FF6E84;" width="16.758" height="56.977"/>
		<path style="fill:#FFB742;" d="M210.754,235.891h-78.203v-16.758c7.7,0,13.965-6.265,13.965-13.965v-25.137h50.273v25.137    c0,7.7,6.265,13.965,13.965,13.965V235.891z"/>
		<path style="fill:#FE8100;" d="M196.789,205.168v-25.137h-25.137v55.859h39.102v-16.758    C203.054,219.133,196.789,212.868,196.789,205.168z"/>
		<path style="fill:#FFE2BA;" d="M230.305,196.789H113V113h117.305V196.789z"/>
		<path style="fill:#CCF0FF;" d="M230.305,359.898H113v-83.789h117.305V359.898z"/>
		<rect x="221.926" y="146.516" style="fill:#FF6E84;" width="68.148" height="16.758"/>
		<circle style="fill:#FE3B7F;" cx="256" cy="361.574" r="8.379"/>
		<circle style="fill:#FE3B7F;" cx="289.516" cy="361.574" r="8.379"/>
		<circle style="fill:#FE3B7F;" cx="356.547" cy="361.574" r="8.379"/>
		<circle style="fill:#FE3B7F;" cx="356.547" cy="294.543" r="8.379"/>
		<circle style="fill:#FE3B7F;" cx="356.547" cy="261.027" r="8.379"/>
		<circle style="fill:#FE3B7F;" cx="323.031" cy="361.574" r="8.379"/>
		<circle style="fill:#FE3B7F;" cx="356.547" cy="328.059" r="8.379"/>
		<rect x="171.652" y="276.109" style="fill:#80C9FF;" width="58.652" height="83.789"/>
		<rect x="171.652" y="113" style="fill:#FFC474;" width="58.652" height="83.789"/>
		<path style="fill:#4DB2FF;" d="M399,196.789H281.695V113H399V196.789z"/>
		<rect x="340.348" y="113" style="fill:#266CB2;" width="58.652" height="83.789"/>
	</g>
</g>















</svg>
