<svg height="512pt" viewBox="0 0 512 512" width="512pt" xmlns="http://www.w3.org/2000/svg"><path d="m512 256c0 141.386719-114.613281 256-256 256s-256-114.613281-256-256 114.613281-256 256-256 256 114.613281 256 256zm0 0" fill="#80dbff"/><path d="m511.945312 260.230469-83.378906-83.382813-7.328125 7.785156-89.726562-89.726562-229.800781 322.1875 85.558593 85.558594c21.871094 6.082031 44.917969 9.347656 68.730469 9.347656 139.972656 0 253.683594-112.339844 255.945312-251.769531zm0 0" fill="#4ab8f7"/><path d="m452.308594 261.414062v-27.242187l-21.019532-3.46875c-2.441406-13.375-7.703124-25.761719-15.144531-36.53125l12.421875-17.324219-19.265625-19.261718-17.320312 12.417968c-10.769531-7.4375-23.160157-12.699218-36.535157-15.144531l-3.464843-21.019531h-27.242188l-3.464843 21.019531c-13.375 2.445313-25.765626 7.707031-36.535157 15.144531l-17.324219-12.417968-19.261718 19.261718 12.417968 17.324219c-7.4375 10.769531-12.699218 23.15625-15.144531 36.53125l-21.019531 3.46875v27.242187l21.019531 3.464844c2.445313 13.375 7.707031 25.761719 15.144531 36.535156l-12.417968 17.320313 19.261718 19.261719 17.324219-12.417969c10.769531 7.441406 23.160157 12.699219 36.535157 15.144531l3.464843 21.019532h27.242188l3.464843-21.019532c13.375-2.441406 25.765626-7.703125 36.535157-15.144531l17.320312 12.417969 19.265625-19.261719-12.421875-17.320313c7.441407-10.773437 12.703125-23.160156 15.144531-36.535156zm-176.863282-13.621093c0-34.746094 28.167969-62.914063 62.914063-62.914063s62.914063 28.167969 62.914063 62.914063c0 34.746093-28.167969 62.914062-62.914063 62.914062s-62.914063-28.167969-62.914063-62.914062zm0 0" fill="#555a66"/><path d="m401.253906 246.976562c.003906.273438.019532.542969.019532.816407 0 34.746093-28.167969 62.914062-62.914063 62.914062s-62.914063-28.167969-62.914063-62.914062c0-.273438.019532-.542969.023438-.816407h-51.058594v14.4375l21.019532 3.464844c2.441406 13.375 7.703124 25.761719 15.144531 36.535156l-12.421875 17.320313 19.265625 19.261719 17.320312-12.417969c10.773438 7.441406 23.160157 12.699219 36.535157 15.144531l3.464843 21.019532h27.242188l3.464843-21.019532c13.375-2.441406 25.765626-7.703125 36.535157-15.144531l17.324219 12.417969 19.261718-19.261719-12.417968-17.320313c7.4375-10.773437 12.699218-23.160156 15.144531-36.535156l21.019531-3.464844v-14.4375zm0 0" fill="#333940"/><path d="m101.710938 94.90625h229.800781v322.1875h-229.800781zm0 0" fill="#fff"/><path d="m216.308594 94.90625h115.203125v322.1875h-115.203125zm0 0" fill="#dce1eb"/><path d="m220.09375 235.609375-36.257812-36.257813-36.511719 35.472657-20.902344-21.519531 57.71875-56.074219 35.953125 35.953125 60.53125-60.53125 21.214844 21.210937zm0 0" fill="#ff936b"/><path d="m130.105469 283h173.007812v30h-173.007812zm0 0" fill="#7e8596"/><path d="m130.105469 336.585938h173.007812v30h-173.007812zm0 0" fill="#7e8596"/><path d="m216.308594 283h86.808594v30h-86.808594zm0 0" fill="#636978"/><path d="m216.308594 336.585938h86.808594v30h-86.808594zm0 0" fill="#636978"/><path d="m233.230469 129.5v30h20.546875l-33.683594 33.683594-3.785156-3.785156v42.425781l3.785156 3.785156 55.136719-55.136719v21.027344h30v-72zm0 0" fill="#ff7045"/></svg>