<?xml version="1.0" encoding="iso-8859-1"?>
<!-- Generator: Adobe Illustrator 21.0.0, SVG Export Plug-In . SVG Version: 6.00 Build 0)  -->
<svg xmlns="http://www.w3.org/2000/svg" xmlns:xlink="http://www.w3.org/1999/xlink" version="1.1" id="Capa_1" x="0px" y="0px" viewBox="0 0 512 512" style="enable-background:new 0 0 512 512;" xml:space="preserve" width="512" height="512">
<g>
	<circle style="fill:#FF4856;" cx="256" cy="256" r="256"/>
	<path style="fill:#D1425A;" d="M512,256c0-12.141-0.865-24.078-2.5-35.769L396.27,107l-122.227,37l-36.086-37L115.73,333.992   c0,0,36.434,36.057,36.424,36.086L107,387.539l123.17,123.17C238.665,511.56,247.281,512,256,512C397.385,512,512,397.385,512,256z   "/>
	<g>
		<rect x="194.305" y="370.078" style="fill:#FFE2BA;" width="123.391" height="17.461"/>
		<rect x="352.617" y="370.078" style="fill:#FFC474;" width="52.383" height="17.461"/>
		<rect x="256" y="370.078" style="fill:#FFC474;" width="61.695" height="17.461"/>
		<rect x="107" y="370.078" style="fill:#FFE2BA;" width="52.383" height="17.461"/>
		<g>
			<path style="fill:#266CB2;" d="M237.957,333.992H115.73V107h122.227V333.992z"/>
			<rect x="176.844" y="107" style="fill:#114378;" width="61.113" height="226.992"/>
			<rect x="168.113" y="290.34" style="fill:#FFE2BA;" width="17.461" height="71.008"/>
			<path style="fill:#FFB742;" d="M176.844,405c-14.442,0-26.191-11.749-26.191-26.191s11.749-26.191,26.191-26.191     s26.191,11.749,26.191,26.191S191.286,405,176.844,405z"/>
			<rect x="150.652" y="141.922" style="fill:#80C9FF;" width="52.383" height="17.461"/>
			<rect x="150.652" y="176.844" style="fill:#80C9FF;" width="52.383" height="17.461"/>
			<rect x="150.652" y="211.766" style="fill:#80C9FF;" width="52.383" height="17.461"/>
			<rect x="176.844" y="141.922" style="fill:#4DB2FF;" width="26.191" height="17.461"/>
			<rect x="176.844" y="176.844" style="fill:#4DB2FF;" width="26.191" height="17.461"/>
			<rect x="176.844" y="211.766" style="fill:#4DB2FF;" width="26.191" height="17.461"/>
			<rect x="176.844" y="290.34" style="fill:#FFC474;" width="8.73" height="71.008"/>
			<path style="fill:#FFB742;" d="M176.844,299.07c-14.442,0-26.191-11.749-26.191-26.191s11.749-26.191,26.191-26.191     s26.191,11.749,26.191,26.191S191.286,299.07,176.844,299.07z"/>
			<path style="fill:#FE8100;" d="M203.035,272.879c0-14.442-11.749-26.191-26.191-26.191v52.383     C191.286,299.07,203.035,287.321,203.035,272.879z"/>
			<path style="fill:#FE8100;" d="M203.035,378.809c0-14.442-11.749-26.191-26.191-26.191V405     C191.286,405,203.035,393.251,203.035,378.809z"/>
		</g>
		<g>
			<path style="fill:#266CB2;" d="M396.27,333.992H274.043V107H396.27V333.992z"/>
			<rect x="335.156" y="107" style="fill:#114378;" width="61.113" height="226.992"/>
			<rect x="326.426" y="290.34" style="fill:#FFE2BA;" width="17.461" height="71.008"/>
			<path style="fill:#FFB742;" d="M335.156,405c-14.442,0-26.191-11.749-26.191-26.191s11.749-26.191,26.191-26.191     s26.191,11.749,26.191,26.191S349.598,405,335.156,405z"/>
			<rect x="308.965" y="141.922" style="fill:#80C9FF;" width="52.383" height="17.461"/>
			<rect x="308.965" y="176.844" style="fill:#80C9FF;" width="52.383" height="17.461"/>
			<rect x="308.965" y="211.766" style="fill:#80C9FF;" width="52.383" height="17.461"/>
			<rect x="335.156" y="141.922" style="fill:#4DB2FF;" width="26.191" height="17.461"/>
			<rect x="335.156" y="176.844" style="fill:#4DB2FF;" width="26.191" height="17.461"/>
			<rect x="335.156" y="211.766" style="fill:#4DB2FF;" width="26.191" height="17.461"/>
			<rect x="335.156" y="290.34" style="fill:#FFC474;" width="8.73" height="71.008"/>
			<path style="fill:#FFB742;" d="M335.156,299.07c-14.442,0-26.191-11.749-26.191-26.191s11.749-26.191,26.191-26.191     s26.191,11.749,26.191,26.191S349.598,299.07,335.156,299.07z"/>
			<path style="fill:#FE8100;" d="M361.348,272.879c0-14.442-11.749-26.191-26.191-26.191v52.383     C349.598,299.07,361.348,287.321,361.348,272.879z"/>
			<path style="fill:#FE8100;" d="M361.348,378.809c0-14.442-11.749-26.191-26.191-26.191V405     C349.598,405,361.348,393.251,361.348,378.809z"/>
		</g>
	</g>
</g>















</svg>
