<svg height="512pt" viewBox="0 0 512 512" width="512pt" xmlns="http://www.w3.org/2000/svg"><path d="m512 256c0 141.386719-114.613281 256-256 256s-256-114.613281-256-256 114.613281-256 256-256 256 114.613281 256 256zm0 0" fill="#4a7aff"/><path d="m512 256c0-9.523438-.535156-18.921875-1.550781-28.175781l-96.246094-96.246094-30.65625 28.234375-103.65625-103.660156-223.738281 223.738281 99.023437 99.019531-23.597656 35.292969 96.246094 96.246094c9.253906 1.015625 18.652343 1.550781 28.175781 1.550781 141.386719 0 256-114.613281 256-256zm0 0" fill="#0053bf"/><path d="m304.757812 232.519531c0 26.925781-21.828124 48.757813-48.757812 48.757813s-48.757812-21.832032-48.757812-48.757813c0-26.929687 21.828124-48.757812 48.757812-48.757812s48.757812 21.828125 48.757812 48.757812zm0 0" fill="#ffbeaa"/><path d="m256 183.761719c-.136719 0-.269531.007812-.40625.011719v97.492187c.136719 0 .269531.007813.40625.007813 26.929688 0 48.757812-21.828126 48.757812-48.753907 0-26.929687-21.828124-48.757812-48.757812-48.757812zm0 0" fill="#e09380"/><path d="m256 368.789062c30.160156 0 57.515625-11.941406 77.648438-31.332031-12.269532-30.878906-42.398438-52.71875-77.648438-52.71875s-65.378906 21.839844-77.648438 52.71875c20.132813 19.390625 47.488282 31.332031 77.648438 31.332031zm0 0" fill="#ffce00"/><path d="m333.648438 337.457031c-12.269532-30.878906-42.398438-52.71875-77.648438-52.71875-.136719 0-.269531.007813-.40625.007813v84.039062c.136719 0 .269531.003906.40625.003906 30.160156 0 57.515625-11.941406 77.648438-31.332031zm0 0" fill="#ffb600"/><path d="m455.847656 279.890625v-47.78125l-36.863281-6.074219c-4.285156-23.457031-13.515625-45.183594-26.558594-64.074218l21.777344-30.382813-33.78125-33.78125-30.382813 21.777344c-18.886718-13.046875-40.617187-22.273438-64.074218-26.558594l-6.074219-36.863281h-47.78125l-6.074219 36.863281c-23.457031 4.285156-45.183594 13.515625-64.074218 26.558594l-30.382813-21.777344-33.78125 33.78125 21.777344 30.382813c-13.046875 18.886718-22.273438 40.617187-26.558594 64.074218l-36.863281 6.074219v47.78125l36.863281 6.074219c4.285156 23.457031 13.515625 45.183594 26.558594 64.074218l-21.777344 30.382813 33.78125 33.78125 30.378906-21.78125c18.890625 13.046875 40.617188 22.273437 64.078125 26.558594l6.074219 36.863281h47.777344l6.078125-36.863281c23.457031-4.285157 45.183594-13.511719 64.074218-26.558594l30.378907 21.78125 33.785156-33.78125-21.78125-30.382813c13.046875-18.886718 22.273437-40.617187 26.558594-64.074218zm-310.1875-23.890625c0-60.9375 49.402344-110.339844 110.339844-110.339844s110.339844 49.402344 110.339844 110.339844-49.402344 110.339844-110.339844 110.339844-110.339844-49.402344-110.339844-110.339844zm0 0" fill="#f2f6fc"/><path d="m418.984375 226.035156c-4.285156-23.457031-13.515625-45.1875-26.558594-64.078125l21.777344-30.378906-33.78125-33.78125-30.382813 21.777344c-18.886718-13.046875-40.617187-22.273438-64.074218-26.558594l-6.074219-36.863281h-24.296875v89.511718c.136719 0 .269531-.003906.40625-.003906 60.9375 0 110.339844 49.402344 110.339844 110.339844s-49.402344 110.339844-110.339844 110.339844c-.136719 0-.269531-.003906-.40625-.003906v89.511718h24.296875l6.074219-36.863281c23.457031-4.285156 45.183594-13.515625 64.074218-26.558594l30.382813 21.777344 33.78125-33.78125-21.78125-30.378906c13.046875-18.890625 22.273437-40.617188 26.558594-64.078125l36.863281-6.074219v-47.777344zm0 0" fill="#dce1eb"/></svg>