<svg height="512pt" viewBox="0 0 512 512" width="512pt" xmlns="http://www.w3.org/2000/svg"><path d="m512 256c0 141.386719-114.613281 256-256 256s-256-114.613281-256-256 114.613281-256 256-256 256 114.613281 256 256zm0 0" fill="#4a7aff"/><path d="m511.683594 268.714844-131.113282-131.113282-166.046874-32.292968-95.832032 85.714844-34.632812 172.027343 147.808594 147.808594c7.945312.742187 15.992187 1.140625 24.132812 1.140625 137.121094 0 249.058594-107.808594 255.683594-243.285156zm0 0" fill="#0053bf"/><path d="m256 427.941406c-94.808594 0-171.941406-77.132812-171.941406-171.941406s77.132812-171.941406 171.941406-171.941406 171.941406 77.132812 171.941406 171.941406-77.132812 171.941406-171.941406 171.941406zm0-304.882812c-73.304688 0-132.941406 59.636718-132.941406 132.941406s59.636718 132.941406 132.941406 132.941406 132.941406-59.636718 132.941406-132.941406-59.636718-132.941406-132.941406-132.941406zm0 0" fill="#ff7045"/><path d="m256 84.058594c-.136719 0-.269531.003906-.40625.003906v39c.136719 0 .269531-.003906.40625-.003906 73.304688 0 132.941406 59.636718 132.941406 132.941406s-59.636718 132.941406-132.941406 132.941406c-.136719 0-.269531-.003906-.40625-.003906v39c.136719 0 .269531.003906.40625.003906 94.808594 0 171.941406-77.132812 171.941406-171.941406s-77.132812-171.941406-171.941406-171.941406zm0 0" fill="#de4726"/><path d="m326.914062 137.601562c0 39.164063-31.75 70.914063-70.914062 70.914063s-70.914062-31.75-70.914062-70.914063c0-39.164062 31.75-70.914062 70.914062-70.914062s70.914062 31.75 70.914062 70.914062zm0 0" fill="#fff"/><path d="m256 66.683594c-.136719 0-.269531.011718-.40625.011718v141.808594c.136719.003906.269531.011719.40625.011719 39.164062 0 70.914062-31.75 70.914062-70.914063 0-39.167968-31.75-70.917968-70.914062-70.917968zm0 0" fill="#dce1eb"/><path d="m286.804688 122.765625c0 17.011719-13.792969 30.804687-30.804688 30.804687s-30.804688-13.792968-30.804688-30.804687 13.792969-30.804687 30.804688-30.804687 30.804688 13.792968 30.804688 30.804687zm0 0" fill="#ffbeaa"/><path d="m256 91.960938c-.136719 0-.269531.007812-.40625.011718v61.585938c.136719.003906.269531.011718.40625.011718 17.011719 0 30.804688-13.792968 30.804688-30.804687s-13.792969-30.804687-30.804688-30.804687zm0 0" fill="#e09380"/><path d="m207.019531 188.882812c12.730469 12.164063 29.984375 19.632813 48.980469 19.632813s36.25-7.46875 48.980469-19.632813c-7.796875-19.410156-26.78125-33.125-48.980469-33.125s-41.183594 13.714844-48.980469 33.125zm0 0" fill="#ffce00"/><path d="m304.980469 188.882812c-7.796875-19.410156-26.78125-33.125-48.980469-33.125-.136719 0-.269531.007813-.40625.007813v52.742187c.136719 0 .269531.007813.40625.007813 18.996094 0 36.25-7.472656 48.980469-19.632813zm0 0" fill="#ffb600"/><path d="m441.816406 320.914062c0 39.167969-31.75 70.914063-70.914062 70.914063-39.167969 0-70.917969-31.746094-70.917969-70.914063 0-39.164062 31.75-70.914062 70.917969-70.914062 39.164062 0 70.914062 31.75 70.914062 70.914062zm0 0" fill="#dce1eb"/><path d="m401.703125 306.078125c0 17.011719-13.789063 30.804687-30.800781 30.804687-17.015625 0-30.804688-13.792968-30.804688-30.804687s13.789063-30.804687 30.804688-30.804687c17.011718 0 30.800781 13.792968 30.800781 30.804687zm0 0" fill="#e09380"/><path d="m321.917969 372.195312c12.730469 12.164063 29.984375 19.632813 48.984375 19.632813 18.996094 0 36.25-7.46875 48.980468-19.632813-7.800781-19.410156-26.78125-33.121093-48.980468-33.121093-22.203125 0-41.183594 13.710937-48.984375 33.121093zm0 0" fill="#ffb600"/><path d="m212.015625 320.914062c0 39.167969-31.75 70.914063-70.917969 70.914063-39.164062 0-70.914062-31.746094-70.914062-70.914063 0-39.164062 31.75-70.914062 70.914062-70.914062 39.167969 0 70.917969 31.75 70.917969 70.914062zm0 0" fill="#fff"/><path d="m171.902344 306.078125c0 17.011719-13.789063 30.804687-30.804688 30.804687-17.011718 0-30.800781-13.792968-30.800781-30.804687s13.789063-30.804687 30.800781-30.804687c17.015625 0 30.804688 13.792968 30.804688 30.804687zm0 0" fill="#ffbeaa"/><path d="m92.117188 372.195312c12.730468 12.164063 29.984374 19.632813 48.980468 19.632813 19 0 36.253906-7.46875 48.984375-19.632813-7.800781-19.410156-26.78125-33.121093-48.984375-33.121093-22.199218 0-41.179687 13.710937-48.980468 33.121093zm0 0" fill="#ffce00"/></svg>