<svg height="512pt" viewBox="0 0 512 512" width="512pt" xmlns="http://www.w3.org/2000/svg"><path d="m512 256c0 141.386719-114.613281 256-256 256s-256-114.613281-256-256 114.613281-256 256-256 256 114.613281 256 256zm0 0" fill="#80dbff"/><path d="m263.734375 511.875c137.804687-4.09375 248.265625-117.078125 248.265625-255.875 0-.101562-.003906-.203125-.003906-.304688l-76.996094-76.996093-117.203125 26.453125-83.34375-83.34375-132.839844 113.78125 42.144531 42.148437-63.183593 50.976563zm0 0" fill="#4ab8f7"/><path d="m366.085938 235.589844 68.914062-56.890625-68.914062-56.890625v25.925781h-139.933594v61.933594h139.933594zm0 0" fill="#555a66"/><path d="m226.152344 178.523438v31.144531h139.933594v25.921875l68.914062-56.890625zm0 0" fill="#333940"/><path d="m149.488281 271.824219-68.914062 56.890625 68.914062 56.890625v-25.921875h139.933594v-61.9375h-139.933594zm0 0" fill="#555a66"/><path d="m80.574219 328.714844 68.914062 56.890625v-25.921875h139.933594v-31.160156zm0 0" fill="#333940"/><path d="m435 328.714844c0 48.300781-39.15625 87.457031-87.457031 87.457031s-87.453125-39.15625-87.453125-87.457031c0-48.300782 39.152344-87.457032 87.453125-87.457032s87.457031 39.15625 87.457031 87.457032zm0 0" fill="#fff"/><path d="m347.542969 241.261719c-.09375 0-.1875 0-.28125.003906v174.902344c.09375 0 .1875.003906.28125.003906 48.300781 0 87.457031-39.15625 87.457031-87.457031 0-48.300782-39.15625-87.453125-87.457031-87.453125zm0 0" fill="#dce1eb"/><path d="m385.535156 310.417969c0 20.980469-17.007812 37.988281-37.988281 37.988281-20.984375 0-37.992187-17.007812-37.992187-37.988281s17.007812-37.988281 37.992187-37.988281c20.980469 0 37.988281 17.007812 37.988281 37.988281zm0 0" fill="#ffbeaa"/><path d="m347.546875 272.429688c-.097656 0-.191406.007812-.285156.007812v75.964844c.09375 0 .1875.003906.285156.003906 20.980469 0 37.988281-17.007812 37.988281-37.988281s-17.011718-37.988281-37.988281-37.988281zm0 0" fill="#e09380"/><path d="m287.136719 391.957031c15.703125 15 36.976562 24.214844 60.40625 24.214844 23.429687 0 44.707031-9.214844 60.40625-24.214844-9.617188-23.9375-33.027344-40.847656-60.402344-40.847656-27.378906 0-50.789063 16.910156-60.410156 40.847656zm0 0" fill="#ff7045"/><path d="m407.949219 391.957031c-9.617188-23.9375-33.027344-40.847656-60.402344-40.847656-.097656 0-.191406.003906-.285156.003906v65.050781c.09375 0 .1875.007813.28125.007813 23.429687 0 44.707031-9.214844 60.40625-24.214844zm0 0" fill="#de4726"/><path d="m255.488281 178.699219c0 48.300781-39.15625 87.457031-87.457031 87.457031s-87.457031-39.15625-87.457031-87.457031 39.15625-87.457031 87.457031-87.457031 87.457031 39.15625 87.457031 87.457031zm0 0" fill="#fff"/><path d="m168.03125 91.246094c-.175781 0-.351562.003906-.53125.007812v174.894532c.175781.003906.355469.007812.53125.007812 48.300781 0 87.457031-39.152344 87.457031-87.457031 0-48.300781-39.15625-87.453125-87.457031-87.453125zm0 0" fill="#dce1eb"/><path d="m206.019531 160.402344c0 20.980468-17.007812 37.992187-37.988281 37.992187s-37.988281-17.011719-37.988281-37.992187c0-20.980469 17.007812-37.988282 37.988281-37.988282s37.988281 17.007813 37.988281 37.988282zm0 0" fill="#ffbeaa"/><path d="m168.03125 122.414062c-.175781 0-.351562.011719-.53125.015626v75.949218c.179688.003906.355469.011719.53125.011719 20.980469 0 37.988281-17.007813 37.988281-37.988281 0-20.980469-17.007812-37.988282-37.988281-37.988282zm0 0" fill="#e09380"/><path d="m107.625 241.941406c15.699219 15 36.976562 24.214844 60.40625 24.214844s44.707031-9.214844 60.40625-24.214844c-9.617188-23.9375-33.027344-40.847656-60.40625-40.847656s-50.785156 16.910156-60.40625 40.847656zm0 0" fill="#ff7045"/><path d="m228.4375 241.941406c-9.617188-23.9375-33.027344-40.847656-60.40625-40.847656-.175781 0-.351562.007812-.53125.007812v65.042969c.179688 0 .351562.011719.53125.011719 23.429688 0 44.707031-9.214844 60.40625-24.214844zm0 0" fill="#de4726"/></svg>