<?xml version="1.0" encoding="iso-8859-1"?>
<!-- Generator: Adobe Illustrator 21.0.0, SVG Export Plug-In . SVG Version: 6.00 Build 0)  -->
<svg xmlns="http://www.w3.org/2000/svg" xmlns:xlink="http://www.w3.org/1999/xlink" version="1.1" id="Capa_1" x="0px" y="0px" viewBox="0 0 512 512" style="enable-background:new 0 0 512 512;" xml:space="preserve" width="512" height="512">
<g>
	<circle style="fill:#30CBEF;" cx="256" cy="256" r="256"/>
	<path style="fill:#00AABC;" d="M512,256c0-3.364-0.085-6.708-0.214-10.04L389.413,123.587l-46.223,10.69l-45.33,11.212   c-0.296-0.308-21.907-21.903-21.907-21.903l-38.831,38.962c0,0,10.403,10.443,10.617,10.653v31.025h-4.591   c-0.214-0.218-80.656-80.64-80.656-80.64l-38.904,38.904l41.723,41.735L132.074,397l114.822,114.822   c3.023,0.106,6.055,0.178,9.104,0.178C397.385,512,512,397.385,512,256z"/>
	<g>
		<polygon style="fill:#4DB2FF;" points="314.383,212.488 297.859,212.488 297.859,134.277 350.184,134.277 350.184,150.801     314.383,150.801   "/>
		<rect x="247.738" y="161.816" style="fill:#80C9FF;" width="16.523" height="50.672"/>
		<polygon style="fill:#80C9FF;" points="214.141,212.488 197.617,212.488 197.617,186.929 153.783,161.233 162.139,146.978     214.141,177.462   "/>
		<rect x="256" y="161.816" style="fill:#4DB2FF;" width="8.262" height="50.672"/>
		<path style="fill:#FFE2BA;" d="M379.926,397H132.074V204.227h247.852V397z"/>
		<rect x="256" y="204.227" style="fill:#FFC474;" width="123.926" height="192.773"/>
		<path style="fill:#FE8100;" d="M396.449,341.922H305.57c-22.778,0-41.309-18.531-41.309-41.309s18.531-41.309,41.309-41.309    h90.879V341.922z"/>
		<circle style="fill:#FFB742;" cx="305.57" cy="300.613" r="8.262"/>
		<path style="fill:#114378;" d="M369.461,170.078c-15.185,0-27.539-12.354-27.539-27.539S354.276,115,369.461,115    S397,127.354,397,142.539S384.646,170.078,369.461,170.078z"/>
		<path style="fill:#266CB2;" d="M256,170.078c-15.185,0-27.539-12.354-27.539-27.539S240.815,115,256,115    s27.539,12.354,27.539,27.539S271.185,170.078,256,170.078z"/>
		<path style="fill:#266CB2;" d="M142.539,170.078c-15.185,0-27.539-12.354-27.539-27.539S127.354,115,142.539,115    s27.539,12.354,27.539,27.539S157.724,170.078,142.539,170.078z"/>
		<path style="fill:#114378;" d="M283.539,142.539C283.539,127.354,271.185,115,256,115v55.078    C271.185,170.078,283.539,157.724,283.539,142.539z"/>
	</g>
</g>















</svg>
